<svg width="240" height="40" viewBox="0 0 240 40" fill="none" xmlns="http://www.w3.org/2000/svg">
  <rect x="2" y="2" width="36" height="36" rx="12" fill="url(#paint0_linear_1_1)"/>
  <path d="M14 11H27C29.7614 11 32 13.2386 32 16C32 18.7614 29.7614 21 27 21H20V29H14V11Z" fill="white"/>
  <path d="M20 11H27C29.7614 11 32 13.2386 32 16C32 18.7614 29.7614 21 27 21H20V11Z" fill="white"/>
  <path d="M20 18H26C28.2091 18 30 19.7909 30 22C30 24.2091 28.2091 26 26 26H20V18Z" fill="#CCFBF1"/>
  <text x="50" y="18" fill="#f8faf9" font-family="Avenir Next, Segoe UI, Helvetica, Arial, sans-serif" font-size="12" font-weight="700" letter-spacing="1.6">FUELING</text>
  <text x="50" y="31" fill="#B7C7BE" font-family="Avenir Next, Segoe UI, Helvetica, Arial, sans-serif" font-size="13" font-weight="600">Optimizer</text>
  <defs>
    <linearGradient id="paint0_linear_1_1" x1="6" y1="6" x2="34" y2="34" gradientUnits="userSpaceOnUse">
      <stop stop-color="#10b981"/>
      <stop offset="1" stop-color="#14b8a6"/>
    </linearGradient>
  </defs>
</svg>
